<svg width="220" height="100" viewBox="0 0 220 100" fill="none" xmlns="http://www.w3.org/2000/svg">
<g clip-path="url(#clip0_1946_4724)">
<path d="M81.5963 61.879V67.8132C81.5963 68.7032 80.9084 69.4404 80.0184 69.4939C79.5772 69.5204 79.0377 69.5391 78.3929 69.5391C74.1498 69.5391 70.7281 67.6088 69.313 64.1901C67.8982 66.2681 64.028 70.2834 56.284 70.2834C46.9797 70.2834 41.9912 64.0392 41.9912 55.4201V33.1762C41.9912 32.2465 42.7462 31.493 43.6774 31.493H49.985C50.9163 31.493 51.6712 32.2466 51.6712 33.1762V52.4244C51.6712 57.3284 53.7533 60.747 59.1873 60.747C64.4729 60.747 67.452 57.4041 67.452 51.2354V33.1761C67.452 32.2465 68.207 31.4929 69.1382 31.4929H75.4427C76.374 31.4929 77.1289 32.2465 77.1289 33.1761V56.4359C77.0877 58.9619 78.2019 60.0632 80.0921 60.2077C80.9498 60.2732 81.5961 61.0204 81.5961 61.8791L81.5963 61.879Z" fill="#DE5F3F"/>
<path d="M186.881 85.44H180.67C179.738 85.44 178.983 84.6864 178.983 83.7568V33.176C178.983 32.2464 179.738 31.4928 180.67 31.4928H186.677C187.608 31.4928 188.363 32.2465 188.363 33.176V36.4725H188.436C190.894 32.7574 195.955 30.5278 201.462 30.5278C212.703 30.5278 220.001 39.2951 220.001 50.4433C220.001 61.5916 212.703 70.3559 201.462 70.3559C195.955 70.3559 190.894 67.978 188.436 64.2629H188.363L188.567 83.7392C188.577 84.6757 187.819 85.4401 186.881 85.4401L186.881 85.44ZM189.122 50.4432C189.122 56.3005 193.012 60.8903 199.378 60.8903C205.741 60.8903 209.562 56.3005 209.562 50.4432C209.562 44.5859 205.741 39.9932 199.378 39.9932C193.012 39.9932 189.122 44.5831 189.122 50.4432Z" fill="#DE5F3F"/>
<path d="M96.493 85.44H90.2819C89.3506 85.44 88.5957 84.6864 88.5957 83.7568V33.176C88.5957 32.2464 89.3507 31.4928 90.2819 31.4928H96.2894C97.2207 31.4928 97.9756 32.2465 97.9756 33.176V36.4725H98.0484C100.506 32.7574 105.568 30.5278 111.074 30.5278C122.315 30.5278 129.613 39.2951 129.613 50.4433C129.613 61.5916 122.315 70.3559 111.074 70.3559C105.568 70.3559 100.506 67.978 98.0484 64.2629H97.9756L98.1791 83.7392C98.1889 84.6757 97.4311 85.4401 96.4929 85.4401L96.493 85.44ZM98.7348 50.4432C98.7348 56.3005 102.625 60.8903 108.99 60.8903C115.353 60.8903 119.174 56.3005 119.174 50.4432C119.174 44.5859 115.353 39.9932 108.99 39.9932C102.624 39.9932 98.7348 44.5831 98.7348 50.4432Z" fill="#DE5F3F"/>
<path d="M3.82975 82.5473L5.68578 77.8032C6.01653 76.9578 6.9538 76.5268 7.81174 76.8273C9.45853 77.4041 12.0076 78.0833 14.9709 78.0833C22.2257 78.0962 25.9529 74.2673 25.4947 65.8797C23.419 67.9487 19.8618 70.1685 14.2287 70.1685C4.9662 70.1686 0 63.8078 0 55.2274V33.122C0 32.1924 0.754925 31.4388 1.68623 31.4388H7.94734C8.87864 31.4388 9.63356 32.1924 9.63356 33.122V52.3242C9.63356 57.2062 11.7094 60.6094 17.119 60.6094C22.3808 60.6094 25.3467 57.2815 25.3467 51.1406V33.1108C25.3467 32.1811 26.1016 31.4276 27.0329 31.4276H33.294C34.2253 31.4276 34.9803 32.1812 34.9803 33.1108V66.7653C34.9803 77.1979 28.6805 86.5914 15.1941 86.5914C11.2337 86.5879 7.66413 86.0444 4.68212 84.6892C3.87348 84.3217 3.50651 83.3735 3.82975 82.5473V82.5473Z" fill="#DE5F3F"/>
<path d="M133.021 50.4247C133.022 38.7596 141.898 30.5632 153.509 30.5632C165.122 30.5632 173.996 38.7596 173.996 50.4247C173.995 62.0868 165.122 70.2833 153.508 70.2833C141.898 70.2833 133.021 62.0868 133.021 50.4247ZM143.391 50.4247C143.391 56.0355 147.187 60.7327 153.508 60.7327C159.833 60.7327 163.626 56.0355 163.626 50.4247C163.626 44.8138 159.833 40.1138 153.509 40.1138C147.187 40.1138 143.391 44.8138 143.391 50.4247Z" fill="#DE5F3F"/>
<path d="M156.97 2H150.208C149.149 2 148.29 2.85708 148.29 3.91438L150.847 23.9285C150.847 24.9858 151.706 25.8429 152.765 25.8429H154.413C155.472 25.8429 156.331 24.9858 156.331 23.9285L158.888 3.91438C158.888 2.85708 158.029 2 156.97 2Z" fill="#DE5F3F"/>
<path d="M132.252 6.76144L126.396 10.1363C125.478 10.665 125.164 11.8358 125.694 12.7514L137.933 28.8077C138.463 29.7234 139.636 30.0371 140.553 29.5084L141.98 28.686C142.898 28.1573 143.212 26.9865 142.682 26.0709L134.871 7.46207C134.342 6.54642 133.169 6.23272 132.252 6.76137V6.76144Z" fill="#DE5F3F"/>
<path d="M180.761 10.214L174.905 6.83911C173.988 6.31046 172.815 6.62423 172.285 7.53988L164.475 26.1491C163.945 27.0647 164.26 28.2356 165.177 28.7642L166.604 29.5866C167.521 30.1153 168.694 29.8015 169.224 28.8858L181.463 12.8292C181.992 11.9136 181.678 10.7427 180.761 10.2141V10.214Z" fill="#DE5F3F"/>
</g>
<defs>
<clipPath id="clip0_1946_4724">
<rect width="220" height="100" fill="white"/>
</clipPath>
</defs>
</svg>
